# 3ds Max Wavefront OBJ Exporter v0.97b - (c)2007 guruware
# File Created: 15.01.2013 23:15:14

#
# object Cylinder
#

v  15.0000 1.0000 -0.0000
v  13.5145 1.0000 -6.5083
v  13.5145 99.0000 -6.5083
v  15.0000 99.0000 -0.0000
v  9.3523 1.0000 -11.7275
v  9.3523 99.0000 -11.7275
v  3.3378 1.0000 -14.6239
v  3.3378 99.0000 -14.6239
v  -3.3378 1.0000 -14.6239
v  -3.3378 99.0000 -14.6239
v  -9.3523 1.0000 -11.7275
v  -9.3523 99.0000 -11.7275
v  -13.5145 1.0000 -6.5083
v  -13.5145 99.0000 -6.5083
v  -15.0000 1.0000 -0.0000
v  -15.0000 99.0000 -0.0000
v  -13.5145 1.0000 6.5083
v  -13.5145 99.0000 6.5083
v  -9.3524 1.0000 11.7275
v  -9.3524 99.0000 11.7275
v  -3.3378 1.0000 14.6239
v  -3.3378 99.0000 14.6239
v  3.3378 1.0000 14.6239
v  3.3378 99.0000 14.6239
v  9.3524 1.0000 11.7275
v  9.3524 99.0000 11.7275
v  13.5145 1.0000 6.5082
v  13.5145 99.0000 6.5082
v  13.9871 100.0000 0.0000
v  12.6020 100.0000 -6.0688
v  11.6663 100.0000 -5.6182
v  12.9486 100.0000 0.0000
v  8.7208 100.0000 -10.9356
v  8.0733 100.0000 -10.1236
v  3.1124 100.0000 -13.6365
v  2.8813 100.0000 -12.6239
v  -3.1124 100.0000 -13.6365
v  -2.8813 100.0000 -12.6239
v  -8.7208 100.0000 -10.9356
v  -8.0733 100.0000 -10.1236
v  -12.6020 100.0000 -6.0688
v  -11.6663 100.0000 -5.6182
v  -13.9871 100.0000 -0.0000
v  -12.9486 100.0000 -0.0000
v  -12.6020 100.0000 6.0688
v  -11.6663 100.0000 5.6182
v  -8.7208 100.0000 10.9356
v  -8.0733 100.0000 10.1236
v  -3.1124 100.0000 13.6365
v  -2.8813 100.0000 12.6239
v  3.1124 100.0000 13.6365
v  2.8813 100.0000 12.6239
v  8.7208 100.0000 10.9356
v  8.0733 100.0000 10.1236
v  12.6020 100.0000 6.0688
v  11.6663 100.0000 5.6182
v  11.6663 95.0000 -5.6182
v  12.9486 95.0000 0.0000
v  8.0733 95.0000 -10.1236
v  2.8813 95.0000 -12.6239
v  -2.8813 95.0000 -12.6239
v  -8.0733 95.0000 -10.1236
v  -11.6663 95.0000 -5.6182
v  -12.9486 95.0000 -0.0000
v  -11.6663 95.0000 5.6182
v  -8.0733 95.0000 10.1236
v  -2.8813 95.0000 12.6239
v  2.8813 95.0000 12.6239
v  8.0733 95.0000 10.1236
v  11.6663 95.0000 5.6182
v  12.6020 0.0000 -6.0688
v  13.9871 0.0000 0.0000
v  0.0000 0.0000 -0.0000
v  12.6020 0.0000 6.0688
v  8.7208 0.0000 10.9356
v  3.1124 0.0000 13.6365
v  -3.1124 0.0000 13.6365
v  -8.7208 0.0000 10.9356
v  -12.6020 0.0000 6.0688
v  -13.9871 0.0000 -0.0000
v  -12.6020 0.0000 -6.0688
v  -8.7208 0.0000 -10.9356
v  -3.1124 0.0000 -13.6365
v  3.1124 0.0000 -13.6365
v  8.7208 0.0000 -10.9356
v  0.0000 95.0000 -0.0000
# 86 vertices

vn 1.0000 0.0029 -0.0000
vn 0.9010 0.0029 -0.4339
vn 0.9010 -0.0058 -0.4339
vn 1.0000 -0.0058 -0.0000
vn 0.6235 0.0029 -0.7818
vn 0.6235 -0.0058 -0.7818
vn 0.2225 0.0029 -0.9749
vn 0.2225 -0.0058 -0.9749
vn -0.2225 0.0029 -0.9749
vn -0.2225 -0.0058 -0.9749
vn -0.6235 0.0029 -0.7818
vn -0.6235 -0.0058 -0.7818
vn -0.9010 0.0029 -0.4339
vn -0.9010 -0.0058 -0.4339
vn -1.0000 0.0029 -0.0000
vn -1.0000 -0.0058 -0.0000
vn -0.9010 0.0029 0.4339
vn -0.9010 -0.0058 0.4339
vn -0.6235 0.0029 0.7818
vn -0.6235 -0.0058 0.7818
vn -0.2225 0.0029 0.9749
vn -0.2225 -0.0058 0.9749
vn 0.2225 0.0029 0.9749
vn 0.2225 -0.0058 0.9749
vn 0.6235 0.0029 0.7818
vn 0.6235 -0.0058 0.7818
vn 0.9010 0.0029 0.4339
vn 0.9010 -0.0058 0.4339
vn 0.0003 1.0000 -0.0000
vn 0.0003 1.0000 -0.0001
vn -0.0000 1.0000 0.0000
vn 0.0002 1.0000 -0.0003
vn 0.0001 1.0000 -0.0003
vn -0.0001 1.0000 -0.0003
vn -0.0002 1.0000 -0.0003
vn -0.0003 1.0000 -0.0001
vn -0.0003 1.0000 -0.0000
vn -0.0003 1.0000 0.0001
vn -0.0002 1.0000 0.0003
vn -0.0001 1.0000 0.0003
vn 0.0001 1.0000 0.0003
vn 0.0002 1.0000 0.0003
vn 0.0003 1.0000 0.0001
vn -1.0000 0.0000 0.0000
vn -0.9010 0.0000 0.4339
vn -0.6235 0.0000 0.7818
vn -0.2225 0.0000 0.9749
vn 0.2225 0.0000 0.9749
vn 0.6235 0.0000 0.7818
vn 0.9010 0.0000 0.4339
vn 1.0000 0.0000 0.0000
vn 0.9010 0.0000 -0.4339
vn 0.6235 0.0000 -0.7818
vn 0.2225 0.0000 -0.9749
vn -0.2225 0.0000 -0.9749
vn -0.6235 0.0000 -0.7818
vn -0.9010 0.0000 -0.4339
vn 0.0001 -1.0000 -0.0001
vn 0.0001 -1.0000 -0.0000
vn 0.0000 -1.0000 -0.0000
vn 0.0001 -1.0000 0.0001
vn 0.0000 -1.0000 0.0001
vn -0.0000 -1.0000 0.0001
vn -0.0001 -1.0000 0.0001
vn -0.0001 -1.0000 -0.0000
vn -0.0001 -1.0000 -0.0001
vn -0.0000 -1.0000 -0.0001
vn 0.0000 -1.0000 -0.0001
vn 0.0000 1.0000 -0.0000
vn -0.0000 1.0000 -0.0000
vn 0.0000 1.0000 0.0000
# 71 vertex normals

vt 0.0143 0.0679 0.0326
vt 0.0666 0.0679 0.0351
vt 0.0666 0.8870 0.0351
vt 0.0143 0.8870 0.0326
vt 0.1189 0.0679 0.0405
vt 0.1189 0.8870 0.0405
vt 0.1712 0.0679 0.0449
vt 0.1712 0.8870 0.0449
vt 0.2235 0.0679 0.0449
vt 0.2235 0.8870 0.0449
vt 0.2758 0.0679 0.0405
vt 0.2758 0.8870 0.0405
vt 0.3281 0.0679 0.0351
vt 0.3281 0.8870 0.0351
vt 0.3804 0.0679 0.0326
vt 0.3804 0.8870 0.0326
vt 0.4327 0.0679 0.0351
vt 0.4327 0.8870 0.0351
vt 0.4850 0.0679 0.0405
vt 0.4850 0.8870 0.0405
vt 0.5373 0.0679 0.0449
vt 0.5373 0.8870 0.0449
vt 0.5896 0.0679 0.0449
vt 0.5896 0.8870 0.0449
vt 0.6418 0.0679 0.0405
vt 0.6418 0.8870 0.0405
vt 0.6941 0.0679 0.0351
vt 0.6941 0.8870 0.0351
vt 0.7464 0.0679 0.0326
vt 0.7464 0.8870 0.0326
vt 0.0143 0.8996 -0.0006
vt 0.0666 0.8996 0.0009
vt 0.0666 0.9174 0.0000
vt 0.0143 0.9174 0.0000
vt 0.1189 0.8996 0.0031
vt 0.1189 0.9174 0.0000
vt 0.1712 0.8996 0.0051
vt 0.1712 0.9174 0.0000
vt 0.2235 0.8996 0.0051
vt 0.2235 0.9174 0.0000
vt 0.2758 0.8996 0.0031
vt 0.2758 0.9174 0.0000
vt 0.3281 0.8996 0.0006
vt 0.3281 0.9174 0.0000
vt 0.3804 0.8996 -0.0006
vt 0.3804 0.9174 0.0000
vt 0.4327 0.8996 0.0006
vt 0.4327 0.9174 0.0000
vt 0.4850 0.8996 0.0031
vt 0.4850 0.9174 0.0000
vt 0.5373 0.8996 0.0051
vt 0.5373 0.9174 0.0000
vt 0.5896 0.8996 0.0051
vt 0.5896 0.9174 0.0000
vt 0.6418 0.8996 0.0031
vt 0.6418 0.9174 0.0000
vt 0.6941 0.8996 0.0006
vt 0.6941 0.9174 0.0000
vt 0.7464 0.8996 -0.0006
vt 0.7464 0.9174 0.0000
vt 0.0666 0.9591 0.0000
vt 0.0143 0.9591 0.0000
vt 0.1189 0.9591 0.0000
vt 0.1712 0.9591 0.0000
vt 0.2235 0.9591 0.0000
vt 0.2758 0.9591 0.0000
vt 0.3281 0.9591 0.0000
vt 0.3804 0.9591 0.0000
vt 0.4327 0.9591 0.0000
vt 0.4850 0.9591 0.0000
vt 0.5373 0.9591 0.0000
vt 0.5896 0.9591 0.0000
vt 0.6418 0.9591 0.0000
vt 0.6941 0.9591 0.0000
vt 0.7464 0.9591 0.0000
vt 0.7682 0.2431 0.0000
vt 0.7566 0.1924 0.0000
vt 0.8734 0.1924 0.0000
vt 0.7682 0.1417 0.0000
vt 0.8006 0.1011 0.0000
vt 0.8474 0.0785 0.0000
vt 0.8994 0.0785 0.0000
vt 0.9462 0.1011 0.0000
vt 0.9786 0.1417 0.0000
vt 0.9902 0.1924 0.0000
vt 0.9786 0.2431 0.0000
vt 0.9462 0.2837 0.0000
vt 0.8994 0.3063 0.0000
vt 0.8474 0.3063 0.0000
vt 0.8006 0.2837 0.0000
vt 0.7656 0.4357 0.0000
vt 0.7763 0.3888 0.0000
vt 0.8737 0.4357 0.0000
vt 0.8063 0.3512 0.0000
vt 0.8497 0.3303 0.0000
vt 0.8978 0.3303 0.0000
vt 0.9412 0.3512 0.0000
vt 0.9712 0.3888 0.0000
vt 0.9819 0.4357 0.0000
vt 0.9712 0.4826 0.0000
vt 0.9412 0.5202 0.0000
vt 0.8978 0.5411 0.0000
vt 0.8497 0.5411 0.0000
vt 0.8063 0.5202 0.0000
vt 0.7763 0.4826 0.0000
vt 0.0666 0.0561 0.0011
vt 0.0143 0.0561 -0.0011
vt 0.1189 0.0561 0.0062
vt 0.1712 0.0561 0.0103
vt 0.2235 0.0561 0.0103
vt 0.2758 0.0561 0.0062
vt 0.3281 0.0561 0.0011
vt 0.3804 0.0561 -0.0011
vt 0.4327 0.0561 0.0011
vt 0.4850 0.0561 0.0062
vt 0.5373 0.0561 0.0103
vt 0.5896 0.0561 0.0103
vt 0.6418 0.0561 0.0062
vt 0.6941 0.0561 0.0011
vt 0.7464 0.0561 -0.0011
# 120 texture coords

g Cylinder
s 1
f 1/1/1 2/2/2 3/3/3 4/4/4 
f 2/2/2 5/5/5 6/6/6 3/3/3 
f 5/5/5 7/7/7 8/8/8 6/6/6 
f 7/7/7 9/9/9 10/10/10 8/8/8 
f 9/9/9 11/11/11 12/12/12 10/10/10 
f 11/11/11 13/13/13 14/14/14 12/12/12 
f 13/13/13 15/15/15 16/16/16 14/14/14 
f 15/15/15 17/17/17 18/18/18 16/16/16 
f 17/17/17 19/19/19 20/20/20 18/18/18 
f 19/19/19 21/21/21 22/22/22 20/20/20 
f 21/21/21 23/23/23 24/24/24 22/22/22 
f 23/23/23 25/25/25 26/26/26 24/24/24 
f 25/25/25 27/27/27 28/28/28 26/26/26 
f 27/27/27 1/29/1 4/30/4 28/28/28 
f 29/31/29 30/32/30 31/33/31 32/34/31 
f 30/32/30 33/35/32 34/36/31 31/33/31 
f 33/35/32 35/37/33 36/38/31 34/36/31 
f 35/37/33 37/39/34 38/40/31 36/38/31 
f 37/39/34 39/41/35 40/42/31 38/40/31 
f 39/41/35 41/43/36 42/44/31 40/42/31 
f 41/43/36 43/45/37 44/46/31 42/44/31 
f 43/45/37 45/47/38 46/48/31 44/46/31 
f 45/47/38 47/49/39 48/50/31 46/48/31 
f 47/49/39 49/51/40 50/52/31 48/50/31 
f 49/51/40 51/53/41 52/54/31 50/52/31 
f 51/53/41 53/55/42 54/56/31 52/54/31 
f 53/55/42 55/57/43 56/58/31 54/56/31 
f 55/57/43 29/59/29 32/60/31 56/58/31 
s 2
f 32/34/44 31/33/45 57/61/45 58/62/44 
f 31/33/45 34/36/46 59/63/46 57/61/45 
f 34/36/46 36/38/47 60/64/47 59/63/46 
f 36/38/47 38/40/48 61/65/48 60/64/47 
f 38/40/48 40/42/49 62/66/49 61/65/48 
f 40/42/49 42/44/50 63/67/50 62/66/49 
f 42/44/50 44/46/51 64/68/51 63/67/50 
f 44/46/51 46/48/52 65/69/52 64/68/51 
f 46/48/52 48/50/53 66/70/53 65/69/52 
f 48/50/53 50/52/54 67/71/54 66/70/53 
f 50/52/54 52/54/55 68/72/55 67/71/54 
f 52/54/55 54/56/56 69/73/56 68/72/55 
f 54/56/56 56/58/57 70/74/57 69/73/56 
f 56/58/57 32/60/44 58/75/44 70/74/57 
s 1
f 71/76/58 72/77/59 73/78/60 
f 72/77/59 74/79/61 73/78/60 
f 74/79/61 75/80/61 73/78/60 
f 75/80/61 76/81/62 73/78/60 
f 76/81/62 77/82/63 73/78/60 
f 77/82/63 78/83/64 73/78/60 
f 78/83/64 79/84/64 73/78/60 
f 79/84/64 80/85/65 73/78/60 
f 80/85/65 81/86/66 73/78/60 
f 81/86/66 82/87/66 73/78/60 
f 82/87/66 83/88/67 73/78/60 
f 83/88/67 84/89/68 73/78/60 
f 84/89/68 85/90/58 73/78/60 
f 85/90/58 71/76/58 73/78/60 
f 58/91/69 57/92/69 86/93/70 
f 57/92/69 59/94/69 86/93/70 
f 59/94/69 60/95/69 86/93/70 
f 60/95/69 61/96/70 86/93/70 
f 61/96/70 62/97/70 86/93/70 
f 62/97/70 63/98/70 86/93/70 
f 63/98/70 64/99/70 86/93/70 
f 64/99/70 65/100/31 86/93/70 
f 65/100/31 66/101/31 86/93/70 
f 66/101/31 67/102/31 86/93/70 
f 67/102/31 68/103/71 86/93/70 
f 68/103/71 69/104/71 86/93/70 
f 69/104/71 70/105/71 86/93/70 
f 70/105/71 58/91/69 86/93/70 
f 71/106/58 2/2/2 1/1/1 72/107/59 
f 29/31/29 4/4/4 3/3/3 30/32/30 
f 85/108/58 5/5/5 2/2/2 71/106/58 
f 30/32/30 3/3/3 6/6/6 33/35/32 
f 84/109/68 7/7/7 5/5/5 85/108/58 
f 33/35/32 6/6/6 8/8/8 35/37/33 
f 83/110/67 9/9/9 7/7/7 84/109/68 
f 35/37/33 8/8/8 10/10/10 37/39/34 
f 82/111/66 11/11/11 9/9/9 83/110/67 
f 37/39/34 10/10/10 12/12/12 39/41/35 
f 81/112/66 13/13/13 11/11/11 82/111/66 
f 39/41/35 12/12/12 14/14/14 41/43/36 
f 80/113/65 15/15/15 13/13/13 81/112/66 
f 41/43/36 14/14/14 16/16/16 43/45/37 
f 79/114/64 17/17/17 15/15/15 80/113/65 
f 43/45/37 16/16/16 18/18/18 45/47/38 
f 78/115/64 19/19/19 17/17/17 79/114/64 
f 45/47/38 18/18/18 20/20/20 47/49/39 
f 77/116/63 21/21/21 19/19/19 78/115/64 
f 47/49/39 20/20/20 22/22/22 49/51/40 
f 76/117/62 23/23/23 21/21/21 77/116/63 
f 49/51/40 22/22/22 24/24/24 51/53/41 
f 75/118/61 25/25/25 23/23/23 76/117/62 
f 51/53/41 24/24/24 26/26/26 53/55/42 
f 74/119/61 27/27/27 25/25/25 75/118/61 
f 53/55/42 26/26/26 28/28/28 55/57/43 
f 72/120/59 1/29/1 27/27/27 74/119/61 
f 55/57/43 28/28/28 4/30/4 29/59/29 
# 70 polygons - 28 triangles

#
# object Spikes
#

v  0.0000 132.9243 22.5742
v  22.5742 132.9243 0.0000
v  -0.0000 104.0000 0.0000
v  -0.0000 132.9243 -22.5742
v  -22.5742 132.9243 0.0000
v  8.0102 137.9243 7.9577
v  7.9577 137.9243 -8.0102
v  0.0000 109.0000 0.0000
v  -8.0102 137.9243 -7.9577
v  -7.9577 137.9243 8.0102
v  -1.2577 105.9880 35.9971
v  21.8972 120.8128 19.7717
v  -0.0000 99.0000 0.0000
v  -0.0688 135.6377 1.9698
v  -23.2237 120.8128 18.1953
v  30.6562 105.9880 18.9096
v  28.0181 120.8128 -9.2409
v  0.0000 99.0000 0.0000
v  1.6776 135.6377 1.0348
v  4.3157 120.8128 29.1853
v  31.6043 105.9880 -17.2785
v  5.8379 120.8128 -28.9193
v  1.7294 135.6377 -0.9455
v  27.4958 120.8128 10.6953
v  0.6289 105.9880 -36.0136
v  -22.2391 120.8128 -19.3863
v  0.0000 99.0000 -0.0000
v  0.0344 135.6377 -1.9707
v  22.9024 120.8128 -18.5980
v  -30.9817 105.9880 -18.3715
v  -27.8525 120.8128 9.7287
v  -0.0000 99.0000 -0.0000
v  -1.6954 135.6377 -1.0053
v  -4.8246 120.8128 -29.1055
v  -31.2978 105.9880 17.8277
v  -5.3321 120.8128 29.0168
v  -1.7127 135.6377 0.9756
v  -27.6783 120.8128 -10.2136
v  0.0000 105.9880 36.0191
v  22.5742 120.8128 18.9951
v  -0.0000 135.6377 1.9710
v  -22.5742 120.8128 18.9951
# 42 vertices

vn -0.0000 0.6153 -0.7883
vn -0.7883 0.6153 -0.0000
vn 0.0000 1.0000 0.0000
vn 0.0000 0.6153 0.7883
vn 0.7883 0.6153 -0.0000
vn -0.6609 0.3636 -0.6565
vn -0.6565 0.3636 0.6609
vn -0.0000 1.0000 0.0000
vn 0.6609 0.3636 0.6565
vn 0.6565 0.3636 -0.6609
vn 0.0066 0.9817 -0.1903
vn -0.8020 0.4640 0.3763
vn -0.0327 -0.3506 0.9359
vn -0.0349 -0.0537 0.9979
vn 0.7737 0.4640 0.4313
vn -0.1621 0.9817 -0.1000
vn -0.0700 0.4640 0.8831
vn 0.7971 -0.3506 0.4917
vn 0.8499 -0.0537 0.5242
vn 0.7578 0.4640 -0.4588
vn -0.1671 0.9817 0.0914
vn 0.7327 0.4640 0.4979
vn 0.8217 -0.3506 -0.4493
vn 0.8762 -0.0537 -0.4790
vn -0.0236 0.4640 -0.8855
vn -0.0033 0.9817 0.1904
vn 0.7953 0.4640 -0.3902
vn 0.0164 -0.3506 -0.9364
vn 0.0174 -0.0537 -0.9984
vn -0.7812 0.4640 -0.4178
vn 0.1638 0.9817 0.0971
vn 0.0545 0.4640 -0.8842
vn -0.8055 -0.3506 -0.4777
vn -0.8589 -0.0537 -0.5093
vn -0.7496 0.4640 0.4720
vn 0.1655 0.9817 -0.0943
vn -0.7413 0.4640 -0.4850
vn -0.8138 -0.3506 0.4635
vn -0.8677 -0.0537 0.4942
vn 0.0391 0.4640 0.8850
vn -0.0000 0.9817 -0.1905
vn -0.7883 0.4640 0.4041
vn -0.0000 -0.3506 0.9365
vn 0.0000 -0.0537 0.9986
vn 0.7883 0.4640 0.4041
# 45 vertex normals

vt 0.0101 0.9899 0.5000
vt 0.0101 0.0101 0.5000
vt 0.5000 0.5000 0.5000
vt 0.9899 0.0101 0.5000
vt 0.9899 0.9899 0.5000
# 5 texture coords

g Spikes
s 1
f 87/121/72 88/122/73 89/123/74 
f 88/122/73 90/124/75 89/123/74 
f 90/124/75 91/125/76 89/123/74 
f 91/125/76 87/121/72 89/123/74 
f 92/121/77 93/122/78 94/123/79 
f 93/122/78 95/124/80 94/123/79 
f 95/124/80 96/125/81 94/123/79 
f 96/125/81 92/121/77 94/123/79 
f 97/121/82 98/122/83 99/123/84 
f 98/122/83 100/124/85 99/123/84 
f 100/124/85 101/125/86 99/123/84 
f 101/125/86 97/121/82 99/123/84 
f 102/121/87 103/122/88 104/123/89 
f 103/122/88 105/124/90 104/123/89 
f 105/124/90 106/125/91 104/123/89 
f 106/125/91 102/121/87 104/123/89 
f 107/121/92 108/122/93 104/123/94 
f 108/122/93 109/124/95 104/123/94 
f 109/124/95 110/125/96 104/123/94 
f 110/125/96 107/121/92 104/123/94 
f 111/121/97 112/122/98 113/123/99 
f 112/122/98 114/124/100 113/123/99 
f 114/124/100 115/125/101 113/123/99 
f 115/125/101 111/121/97 113/123/99 
f 116/121/102 117/122/103 118/123/104 
f 117/122/103 119/124/105 118/123/104 
f 119/124/105 120/125/106 118/123/104 
f 120/125/106 116/121/102 118/123/104 
f 121/121/107 122/122/108 118/123/109 
f 122/122/108 123/124/110 118/123/109 
f 123/124/110 124/125/111 118/123/109 
f 124/125/111 121/121/107 118/123/109 
f 125/121/112 126/122/113 99/123/114 
f 126/122/113 127/124/115 99/123/114 
f 127/124/115 128/125/116 99/123/114 
f 128/125/116 125/121/112 99/123/114 
# 0 polygons - 36 triangles

#
# object Cover_cyl
#

v  -9.5551 99.0000 9.5551
v  -6.1869 99.0000 12.3738
v  -7.0000 97.3459 7.0000
v  -12.3738 99.0000 6.1869
v  0.0000 99.0000 14.0000
v  0.0000 97.6541 9.0916
v  6.1869 99.0000 12.3738
v  7.0000 97.3459 7.0000
v  9.5551 99.0000 9.5551
v  12.3738 99.0000 6.1869
v  -14.0000 99.0000 -0.0000
v  -9.0916 97.6541 -0.0000
v  0.0000 99.2521 -0.0000
v  9.0916 97.6541 -0.0000
v  14.0000 99.0000 -0.0000
v  -7.0000 97.3459 -7.0000
v  -12.3738 99.0000 -6.1869
v  0.0000 97.6541 -9.0916
v  7.0000 97.3459 -7.0000
v  12.3738 99.0000 -6.1869
v  -9.5551 99.0000 -9.5551
v  -6.1869 99.0000 -12.3738
v  0.0000 99.0000 -14.0000
v  6.1869 99.0000 -12.3738
v  9.5551 99.0000 -9.5551
# 25 vertices

vn 0.2943 0.9093 -0.2943
vn 0.1253 0.9493 -0.2885
vn -0.3673 0.8407 0.3978
vn 0.2885 0.9493 -0.1253
vn 0.0000 0.9587 -0.2843
vn 0.0000 0.8598 0.5106
vn -0.1253 0.9493 -0.2885
vn 0.3978 0.8407 0.3673
vn -0.2943 0.9093 -0.2943
vn -0.2885 0.9493 -0.1253
vn 0.2843 0.9587 -0.0000
vn -0.5106 0.8598 0.0000
vn 0.0000 1.0000 0.0000
vn 0.5569 0.8306 -0.0000
vn -0.2843 0.9587 0.0000
vn -0.3602 0.8244 -0.4366
vn 0.2885 0.9493 0.1253
vn -0.0000 0.8598 -0.5106
vn 0.3602 0.8244 -0.4366
vn -0.2885 0.9493 0.1253
vn 0.2943 0.9093 0.2943
vn 0.1253 0.9493 0.2885
vn 0.0000 0.9587 0.2843
vn -0.1253 0.9493 0.2885
vn -0.2943 0.9093 0.2943
# 25 vertex normals

vt 0.1591 0.1591 0.8674
vt 0.2793 0.0585 0.8674
vt 0.2502 0.2502 0.0005
vt 0.0585 0.2793 0.8674
vt 0.5000 0.0005 0.8674
vt 0.5000 0.1756 0.1620
vt 0.7207 0.0585 0.8674
vt 0.7498 0.2502 0.0005
vt 0.8409 0.1591 0.8674
vt 0.9415 0.2793 0.8674
vt 0.0005 0.5000 0.8674
vt 0.1756 0.5000 0.1620
vt 0.5000 0.5000 0.9995
vt 0.8244 0.5000 0.1620
vt 0.9995 0.5000 0.8674
vt 0.2502 0.7498 0.0005
vt 0.0585 0.7207 0.8674
vt 0.5000 0.8244 0.1620
vt 0.7498 0.7498 0.0005
vt 0.9415 0.7207 0.8674
vt 0.1591 0.8409 0.8674
vt 0.2793 0.9415 0.8674
vt 0.5000 0.9995 0.8674
vt 0.7207 0.9415 0.8674
vt 0.8409 0.8409 0.8674
# 25 texture coords

g Cover_cyl
s 1
f 129/126/117 130/127/118 131/128/119 132/129/120 
f 131/128/119 130/127/118 133/130/121 134/131/122 
f 133/130/121 135/132/123 136/133/124 134/131/122 
f 136/133/124 135/132/123 137/134/125 138/135/126 
f 139/136/127 132/129/120 131/128/119 140/137/128 
f 131/128/119 134/131/122 141/138/129 140/137/128 
f 141/138/129 134/131/122 136/133/124 142/139/130 
f 136/133/124 138/135/126 143/140/131 142/139/130 
f 139/136/127 140/137/128 144/141/132 145/142/133 
f 144/141/132 140/137/128 141/138/129 146/143/134 
f 141/138/129 142/139/130 147/144/135 146/143/134 
f 147/144/135 142/139/130 143/140/131 148/145/136 
f 149/146/137 145/142/133 144/141/132 150/147/138 
f 144/141/132 146/143/134 151/148/139 150/147/138 
f 151/148/139 146/143/134 147/144/135 152/149/140 
f 147/144/135 148/145/136 153/150/141 152/149/140 
# 16 polygons

