# 3ds Max Wavefront OBJ Exporter v0.97b - (c)2007 guruware
# File Created: 15.01.2013 23:22:14

#
# object Triangle
#

v  -11.2583 0.0000 6.5000
v  -0.0000 0.0000 -13.0000
v  11.2583 0.0000 6.5000
v  12.4904 1.0000 6.6340
v  0.5000 1.0000 -14.1340
v  0.5000 99.0000 -14.1340
v  12.4904 99.0000 6.6340
v  -0.5000 1.0000 -14.1340
v  -12.4904 1.0000 6.6340
v  -12.4904 99.0000 6.6340
v  -0.5000 99.0000 -14.1340
v  -11.9904 1.0000 7.5000
v  11.9904 1.0000 7.5000
v  11.9904 99.0000 7.5000
v  -11.9904 99.0000 7.5000
v  11.2583 100.0000 6.5000
v  -0.0000 100.0000 -13.0000
v  -11.2583 100.0000 6.5000
v  -0.0000 100.0000 -11.0000
v  9.5263 100.0000 5.5000
v  -9.5263 100.0000 5.5000
v  0.0000 95.0000 0.0000
# 22 vertices

vn -0.0000 -1.0000 0.0000
vn -0.0000 -1.0000 -0.0000
vn 0.0000 -1.0000 0.0000
vn 0.8660 -0.0000 -0.5000
vn 0.8660 0.0000 -0.5000
vn -0.8660 -0.0000 -0.5000
vn -0.8660 0.0000 -0.5000
vn -0.0002 -0.0001 1.0000
vn 0.0002 -0.0001 1.0000
vn 0.0002 0.0001 1.0000
vn -0.0002 0.0001 1.0000
vn 0.0000 1.0000 0.0000
vn -0.0000 1.0000 -0.0000
vn -0.0000 1.0000 0.0000
vn 0.0000 1.0000 -0.0000
vn -0.5826 0.7399 0.3363
vn 0.5826 0.7399 0.3363
vn -0.0000 0.7399 -0.6727
# 18 vertex normals

vt 0.7946 0.8356 0.0000
vt 0.7046 0.9915 0.0000
vt 0.6146 0.8356 0.0000
vt 0.2095 0.0228 0.0000
vt 0.4012 0.0228 0.0000
vt 0.4012 0.8063 0.0000
vt 0.2095 0.8063 0.0000
vt 0.4092 0.0228 0.0000
vt 0.6009 0.0227 0.0000
vt 0.6009 0.8063 0.0000
vt 0.4092 0.8063 0.0000
vt 0.6089 0.0227 0.0000
vt 0.8006 0.0227 0.0000
vt 0.8006 0.8063 0.0000
vt 0.6089 0.8063 0.0000
vt 0.2015 0.0228 0.0000
vt 0.2055 0.0107 0.0000
vt 0.4052 0.0107 0.0000
vt 0.6049 0.0107 0.0000
vt 0.2055 0.8184 0.0000
vt 0.2015 0.8063 0.0000
vt 0.4052 0.8184 0.0000
vt 0.6049 0.8184 0.0000
vt 0.3953 0.0114 0.0000
vt 0.2153 0.0114 0.0000
vt 0.5951 0.0114 0.0000
vt 0.4150 0.0114 0.0000
vt 0.7948 0.0114 0.0000
vt 0.6148 0.0114 0.0000
vt 0.3953 0.8176 0.0000
vt 0.2153 0.8176 0.0000
vt 0.5951 0.8176 0.0000
vt 0.4150 0.8176 0.0000
vt 0.7948 0.8176 0.0000
vt 0.6148 0.8176 0.0000
vt 0.5115 0.9901 0.0000
vt 0.4213 0.8338 0.0000
vt 0.4341 0.8412 0.0000
vt 0.5115 0.9754 0.0000
vt 0.6017 0.8338 0.0000
vt 0.5890 0.8412 0.0000
vt 0.5115 0.8859 0.0000
# 42 texture coords

g Triangle
s 1
f 1/1/1 2/2/2 3/3/3 
f 4/4/4 5/5/4 6/6/5 7/7/5 
f 8/8/6 9/9/6 10/10/7 11/11/7 
f 12/12/8 13/13/9 14/14/10 15/15/11 
f 4/4/4 13/16/9 3/17/3 
f 2/18/2 8/8/6 5/5/4 
f 12/12/8 9/9/6 1/19/1 
f 7/7/5 16/20/12 14/21/10 
f 11/11/7 17/22/13 6/6/5 
f 15/15/11 18/23/14 10/10/7 
f 2/24/2 5/5/4 4/4/4 3/25/3 
f 1/26/1 9/9/6 8/8/6 2/27/2 
f 3/28/3 13/13/9 12/12/8 1/29/1 
f 6/6/5 17/30/13 16/31/12 7/7/5 
f 7/7/5 14/21/10 13/16/9 4/4/4 
f 5/5/4 8/8/6 11/11/7 6/6/5 
f 10/10/7 18/32/14 17/33/13 11/11/7 
f 9/9/6 12/12/8 15/15/11 10/10/7 
f 14/14/10 16/34/12 18/35/14 15/15/11 
f 16/36/12 17/37/13 19/38/15 20/39/15 
f 17/37/13 18/40/14 21/41/15 19/38/15 
f 18/40/14 16/36/12 20/39/15 21/41/15 
s 4
f 20/39/16 19/38/16 22/42/16 
s 2
f 19/38/17 21/41/17 22/42/17 
s 8
f 21/41/18 20/39/18 22/42/18 
# 15 polygons - 10 triangles

#
# object Spikes
#

v  0.0000 132.9243 22.5742
v  22.5742 132.9243 0.0000
v  -0.0000 104.0000 0.0000
v  -0.0000 132.9243 -22.5742
v  -22.5742 132.9243 0.0000
v  8.0102 137.9243 7.9577
v  7.9577 137.9243 -8.0102
v  0.0000 109.0000 0.0000
v  -8.0102 137.9243 -7.9577
v  -7.9577 137.9243 8.0102
v  -1.2577 105.9880 35.9971
v  21.8972 120.8128 19.7717
v  -0.0000 99.0000 0.0000
v  -0.0688 135.6377 1.9698
v  -23.2237 120.8128 18.1953
v  30.6562 105.9880 18.9096
v  28.0181 120.8128 -9.2409
v  0.0000 99.0000 0.0000
v  1.6776 135.6377 1.0348
v  4.3157 120.8128 29.1853
v  31.6043 105.9880 -17.2785
v  5.8379 120.8128 -28.9193
v  1.7294 135.6377 -0.9455
v  27.4958 120.8128 10.6953
v  0.6289 105.9880 -36.0136
v  -22.2391 120.8128 -19.3863
v  0.0000 99.0000 -0.0000
v  0.0344 135.6377 -1.9707
v  22.9024 120.8128 -18.5980
v  -30.9817 105.9880 -18.3715
v  -27.8525 120.8128 9.7287
v  -0.0000 99.0000 -0.0000
v  -1.6954 135.6377 -1.0053
v  -4.8246 120.8128 -29.1055
v  -31.2978 105.9880 17.8277
v  -5.3321 120.8128 29.0168
v  -1.7127 135.6377 0.9756
v  -27.6783 120.8128 -10.2136
v  0.0000 105.9880 36.0191
v  22.5742 120.8128 18.9951
v  -0.0000 135.6377 1.9710
v  -22.5742 120.8128 18.9951
# 42 vertices

vn -0.0000 0.6153 -0.7883
vn -0.7883 0.6153 -0.0000
vn 0.0000 1.0000 0.0000
vn 0.0000 0.6153 0.7883
vn 0.7883 0.6153 -0.0000
vn -0.6609 0.3636 -0.6565
vn -0.6565 0.3636 0.6609
vn -0.0000 1.0000 0.0000
vn 0.6609 0.3636 0.6565
vn 0.6565 0.3636 -0.6609
vn 0.0066 0.9817 -0.1903
vn -0.8020 0.4640 0.3763
vn -0.0327 -0.3506 0.9359
vn -0.0349 -0.0537 0.9979
vn 0.7737 0.4640 0.4313
vn -0.1621 0.9817 -0.1000
vn -0.0700 0.4640 0.8831
vn 0.7971 -0.3506 0.4917
vn 0.8499 -0.0537 0.5242
vn 0.7578 0.4640 -0.4588
vn -0.1671 0.9817 0.0914
vn 0.7327 0.4640 0.4979
vn 0.8217 -0.3506 -0.4493
vn 0.8762 -0.0537 -0.4790
vn -0.0236 0.4640 -0.8855
vn -0.0033 0.9817 0.1904
vn 0.7953 0.4640 -0.3902
vn 0.0164 -0.3506 -0.9364
vn 0.0174 -0.0537 -0.9984
vn -0.7812 0.4640 -0.4178
vn 0.1638 0.9817 0.0971
vn 0.0545 0.4640 -0.8842
vn -0.8055 -0.3506 -0.4777
vn -0.8589 -0.0537 -0.5093
vn -0.7496 0.4640 0.4720
vn 0.1655 0.9817 -0.0943
vn -0.7413 0.4640 -0.4850
vn -0.8138 -0.3506 0.4635
vn -0.8677 -0.0537 0.4942
vn 0.0391 0.4640 0.8850
vn -0.0000 0.9817 -0.1905
vn -0.7883 0.4640 0.4041
vn -0.0000 -0.3506 0.9365
vn 0.0000 -0.0537 0.9986
vn 0.7883 0.4640 0.4041
# 45 vertex normals

vt 0.0101 0.9899 0.5000
vt 0.0101 0.0101 0.5000
vt 0.5000 0.5000 0.5000
vt 0.9899 0.0101 0.5000
vt 0.9899 0.9899 0.5000
# 5 texture coords

g Spikes
s 1
f 23/43/19 24/44/20 25/45/21 
f 24/44/20 26/46/22 25/45/21 
f 26/46/22 27/47/23 25/45/21 
f 27/47/23 23/43/19 25/45/21 
f 28/43/24 29/44/25 30/45/26 
f 29/44/25 31/46/27 30/45/26 
f 31/46/27 32/47/28 30/45/26 
f 32/47/28 28/43/24 30/45/26 
f 33/43/29 34/44/30 35/45/31 
f 34/44/30 36/46/32 35/45/31 
f 36/46/32 37/47/33 35/45/31 
f 37/47/33 33/43/29 35/45/31 
f 38/43/34 39/44/35 40/45/36 
f 39/44/35 41/46/37 40/45/36 
f 41/46/37 42/47/38 40/45/36 
f 42/47/38 38/43/34 40/45/36 
f 43/43/39 44/44/40 40/45/41 
f 44/44/40 45/46/42 40/45/41 
f 45/46/42 46/47/43 40/45/41 
f 46/47/43 43/43/39 40/45/41 
f 47/43/44 48/44/45 49/45/46 
f 48/44/45 50/46/47 49/45/46 
f 50/46/47 51/47/48 49/45/46 
f 51/47/48 47/43/44 49/45/46 
f 52/43/49 53/44/50 54/45/51 
f 53/44/50 55/46/52 54/45/51 
f 55/46/52 56/47/53 54/45/51 
f 56/47/53 52/43/49 54/45/51 
f 57/43/54 58/44/55 54/45/56 
f 58/44/55 59/46/57 54/45/56 
f 59/46/57 60/47/58 54/45/56 
f 60/47/58 57/43/54 54/45/56 
f 61/43/59 62/44/60 35/45/61 
f 62/44/60 63/46/62 35/45/61 
f 63/46/62 64/47/63 35/45/61 
f 64/47/63 61/43/59 35/45/61 
# 0 polygons - 36 triangles

#
# object Cover_tri
#

v  -8.2598 98.5900 7.0800
v  -4.1299 98.5900 7.0800
v  -4.1299 97.6141 4.1299
v  -8.2598 98.5900 4.1299
v  0.0000 98.5900 7.0800
v  0.0000 97.7959 5.3639
v  4.1299 98.5900 7.0800
v  4.1299 97.6141 4.1299
v  8.2598 98.5900 7.0800
v  8.2598 98.5900 4.1299
v  -8.2598 98.5900 -0.0000
v  -5.3639 97.7959 -0.0000
v  0.0000 98.7387 -0.0000
v  5.3639 97.7959 -0.0000
v  8.2598 98.5900 -0.0000
v  -4.1299 97.6141 -4.1299
v  -5.6779 98.5900 -4.1299
v  0.0000 97.7959 -5.3639
v  4.1299 97.6141 -4.1299
v  5.6779 98.5900 -4.1299
v  -3.0239 98.5900 -8.2598
v  -2.4482 98.5900 -8.2598
v  0.0000 98.5900 -8.2598
v  2.4482 98.5900 -8.2598
v  3.0239 98.5900 -8.2598
# 25 vertices

vn 0.1158 0.9800 -0.1621
vn 0.0745 0.9628 -0.2598
vn 0.1809 0.9795 -0.0890
vn -0.3673 0.8407 0.3978
vn 0.0000 0.9350 -0.3547
vn 0.0000 0.8598 0.5106
vn -0.0745 0.9628 -0.2598
vn 0.3978 0.8407 0.3673
vn -0.1158 0.9800 -0.1621
vn -0.1809 0.9795 -0.0890
vn 0.2941 0.9545 0.0502
vn -0.5106 0.8598 0.0000
vn 0.0000 1.0000 0.0000
vn 0.5569 0.8306 -0.0000
vn -0.2941 0.9545 0.0502
vn 0.3659 0.9187 0.1488
vn 0.3780 0.9026 0.2061
vn 0.0950 0.9897 0.1067
vn 0.0000 0.9956 0.0940
vn 0.1337 0.9820 -0.1337
vn -0.3059 0.9194 0.2472
vn -0.3780 0.9026 0.2061
vn 0.3969 0.8638 0.3104
vn 0.1662 0.9463 0.2773
vn 0.0000 0.9686 0.2488
vn -0.1662 0.9463 0.2773
vn -0.3969 0.8638 0.3104
# 27 vertex normals

vt 0.0005 0.0005 0.8674
vt 0.2502 0.0005 0.8674
vt 0.2502 0.1926 0.0005
vt 0.0005 0.1926 0.8674
vt 0.5000 0.0005 0.8674
vt 0.5000 0.1123 0.1620
vt 0.7498 0.0005 0.8674
vt 0.7498 0.1926 0.0005
vt 0.9995 0.0005 0.8674
vt 0.9995 0.1926 0.8674
vt 0.0005 0.4616 0.8674
vt 0.1756 0.4616 0.1620
vt 0.5000 0.4616 0.9995
vt 0.8244 0.4616 0.1620
vt 0.9995 0.4616 0.8674
vt 0.2502 0.7305 0.0005
vt 0.1566 0.7305 0.8674
vt 0.5000 0.8109 0.1620
vt 0.7498 0.7305 0.0005
vt 0.8434 0.7305 0.8674
vt 0.3171 0.9995 0.8674
vt 0.3519 0.9995 0.8674
vt 0.5000 0.9995 0.8674
vt 0.6481 0.9995 0.8674
vt 0.6829 0.9995 0.8674
# 25 texture coords

g Cover_tri
s 1
f 65/48/64 66/49/65 67/50/64 68/51/66 
f 67/50/67 66/49/65 69/52/68 70/53/69 
f 69/52/68 71/54/70 72/55/71 70/53/69 
f 72/55/71 71/54/70 73/56/72 74/57/73 
f 75/58/74 68/51/66 67/50/67 76/59/75 
f 67/50/67 70/53/69 77/60/76 76/59/75 
f 77/60/76 70/53/69 72/55/71 78/61/77 
f 72/55/71 74/57/73 79/62/78 78/61/77 
f 75/58/74 76/59/75 80/63/79 81/64/80 
f 80/63/81 76/59/75 77/60/76 82/65/82 
f 77/60/76 78/61/77 83/66/83 82/65/82 
f 83/66/84 78/61/77 79/62/78 84/67/85 
f 85/68/86 81/64/80 80/63/81 86/69/87 
f 80/63/81 82/65/82 87/70/88 86/69/87 
f 87/70/88 82/65/82 83/66/84 88/71/89 
f 83/66/84 84/67/85 89/72/90 88/71/89 
# 16 polygons

